<mxfile host="app.diagrams.net" agent="Mozilla/5.0 (Macintosh; Intel Mac OS X 10_15_7) AppleWebKit/537.36 (KHTML, like Gecko) Chrome/131.0.0.0 Safari/537.36" version="25.0.1">
  <diagram name="Page-1" id="da_HJtz1EjzFYiLIFpJ8">
    <mxGraphModel dx="2293" dy="903" grid="1" gridSize="10" guides="1" tooltips="1" connect="1" arrows="1" fold="1" page="1" pageScale="1" pageWidth="827" pageHeight="1169" math="0" shadow="0">
      <root>
        <mxCell id="0" />
        <mxCell id="1" parent="0" />
        <mxCell id="zgWZBA6vLyGCEYOvneBH-22" value="" style="rounded=0;whiteSpace=wrap;html=1;fillColor=#fff2cc;strokeColor=#d6b656;" vertex="1" parent="1">
          <mxGeometry x="380" y="120" width="760" height="380" as="geometry" />
        </mxCell>
        <mxCell id="zgWZBA6vLyGCEYOvneBH-1" value="" style="rounded=0;whiteSpace=wrap;html=1;" vertex="1" parent="1">
          <mxGeometry x="-160" y="160" width="460" height="290" as="geometry" />
        </mxCell>
        <mxCell id="zgWZBA6vLyGCEYOvneBH-2" value="Front-end" style="text;html=1;align=center;verticalAlign=middle;whiteSpace=wrap;rounded=0;" vertex="1" parent="1">
          <mxGeometry x="30" y="420" width="60" height="30" as="geometry" />
        </mxCell>
        <mxCell id="zgWZBA6vLyGCEYOvneBH-3" value="" style="rounded=0;whiteSpace=wrap;html=1;" vertex="1" parent="1">
          <mxGeometry x="410" y="150" width="690" height="300" as="geometry" />
        </mxCell>
        <mxCell id="zgWZBA6vLyGCEYOvneBH-4" value="Back-end" style="text;html=1;align=center;verticalAlign=middle;whiteSpace=wrap;rounded=0;" vertex="1" parent="1">
          <mxGeometry x="725" y="420" width="60" height="30" as="geometry" />
        </mxCell>
        <mxCell id="zgWZBA6vLyGCEYOvneBH-5" value="HTML" style="rounded=0;whiteSpace=wrap;html=1;" vertex="1" parent="1">
          <mxGeometry x="-10" y="190" width="120" height="60" as="geometry" />
        </mxCell>
        <mxCell id="zgWZBA6vLyGCEYOvneBH-6" value="CSS" style="rounded=0;whiteSpace=wrap;html=1;" vertex="1" parent="1">
          <mxGeometry x="-10" y="260" width="120" height="60" as="geometry" />
        </mxCell>
        <mxCell id="zgWZBA6vLyGCEYOvneBH-7" value="JS" style="rounded=0;whiteSpace=wrap;html=1;" vertex="1" parent="1">
          <mxGeometry x="-10" y="330" width="120" height="60" as="geometry" />
        </mxCell>
        <mxCell id="zgWZBA6vLyGCEYOvneBH-8" value="" style="rounded=0;whiteSpace=wrap;html=1;" vertex="1" parent="1">
          <mxGeometry x="450" y="190" width="270" height="190" as="geometry" />
        </mxCell>
        <mxCell id="zgWZBA6vLyGCEYOvneBH-9" value="&lt;span style=&quot;color: rgb(0, 0, 0); font-family: Helvetica; font-size: 12px; font-style: normal; font-variant-ligatures: normal; font-variant-caps: normal; font-weight: 400; letter-spacing: normal; orphans: 2; text-align: center; text-indent: 0px; text-transform: none; widows: 2; word-spacing: 0px; -webkit-text-stroke-width: 0px; white-space: normal; background-color: rgb(251, 251, 251); text-decoration-thickness: initial; text-decoration-style: initial; text-decoration-color: initial; display: inline !important; float: none;&quot;&gt;NodeJS&lt;/span&gt;" style="text;whiteSpace=wrap;html=1;" vertex="1" parent="1">
          <mxGeometry x="560" y="350" width="80" height="40" as="geometry" />
        </mxCell>
        <mxCell id="zgWZBA6vLyGCEYOvneBH-10" value="" style="rounded=0;whiteSpace=wrap;html=1;" vertex="1" parent="1">
          <mxGeometry x="470" y="210" width="210" height="130" as="geometry" />
        </mxCell>
        <mxCell id="zgWZBA6vLyGCEYOvneBH-11" value="&lt;span style=&quot;color: rgb(0, 0, 0); font-family: Helvetica; font-size: 12px; font-style: normal; font-variant-ligatures: normal; font-variant-caps: normal; font-weight: 400; letter-spacing: normal; orphans: 2; text-align: center; text-indent: 0px; text-transform: none; widows: 2; word-spacing: 0px; -webkit-text-stroke-width: 0px; white-space: normal; background-color: rgb(251, 251, 251); text-decoration-thickness: initial; text-decoration-style: initial; text-decoration-color: initial; display: inline !important; float: none;&quot;&gt;ExpressJS&lt;/span&gt;" style="text;whiteSpace=wrap;html=1;" vertex="1" parent="1">
          <mxGeometry x="550" y="310" width="90" height="40" as="geometry" />
        </mxCell>
        <mxCell id="zgWZBA6vLyGCEYOvneBH-15" style="edgeStyle=orthogonalEdgeStyle;rounded=0;orthogonalLoop=1;jettySize=auto;html=1;entryX=0;entryY=0.5;entryDx=0;entryDy=0;" edge="1" parent="1" source="zgWZBA6vLyGCEYOvneBH-12" target="zgWZBA6vLyGCEYOvneBH-13">
          <mxGeometry relative="1" as="geometry" />
        </mxCell>
        <mxCell id="zgWZBA6vLyGCEYOvneBH-12" value="Patient flow logic" style="text;html=1;align=center;verticalAlign=middle;whiteSpace=wrap;rounded=0;fillColor=#d5e8d4;strokeColor=#82b366;" vertex="1" parent="1">
          <mxGeometry x="560" y="240" width="80" height="50" as="geometry" />
        </mxCell>
        <mxCell id="zgWZBA6vLyGCEYOvneBH-13" value="" style="rounded=0;whiteSpace=wrap;html=1;" vertex="1" parent="1">
          <mxGeometry x="790" y="190" width="270" height="190" as="geometry" />
        </mxCell>
        <mxCell id="zgWZBA6vLyGCEYOvneBH-14" value="PostgreSQL" style="text;whiteSpace=wrap;" vertex="1" parent="1">
          <mxGeometry x="890" y="350" width="90" height="40" as="geometry" />
        </mxCell>
        <mxCell id="zgWZBA6vLyGCEYOvneBH-16" value="API" style="rounded=0;whiteSpace=wrap;html=1;fillColor=#f5f5f5;fontColor=#333333;strokeColor=#666666;" vertex="1" parent="1">
          <mxGeometry x="500" y="220" width="30" height="110" as="geometry" />
        </mxCell>
        <mxCell id="zgWZBA6vLyGCEYOvneBH-18" style="edgeStyle=orthogonalEdgeStyle;rounded=0;orthogonalLoop=1;jettySize=auto;html=1;entryX=0.005;entryY=0.688;entryDx=0;entryDy=0;entryPerimeter=0;startArrow=classic;startFill=1;" edge="1" parent="1">
          <mxGeometry relative="1" as="geometry">
            <mxPoint x="530" y="280.00000000000006" as="sourcePoint" />
            <mxPoint x="560.3999999999999" y="279.40000000000003" as="targetPoint" />
          </mxGeometry>
        </mxCell>
        <mxCell id="zgWZBA6vLyGCEYOvneBH-19" style="edgeStyle=orthogonalEdgeStyle;rounded=0;orthogonalLoop=1;jettySize=auto;html=1;startArrow=classic;startFill=1;" edge="1" parent="1">
          <mxGeometry relative="1" as="geometry">
            <mxPoint x="530" y="266" as="sourcePoint" />
            <mxPoint x="560" y="265" as="targetPoint" />
          </mxGeometry>
        </mxCell>
        <mxCell id="zgWZBA6vLyGCEYOvneBH-20" style="edgeStyle=orthogonalEdgeStyle;rounded=0;orthogonalLoop=1;jettySize=auto;html=1;startArrow=classic;startFill=1;" edge="1" parent="1">
          <mxGeometry relative="1" as="geometry">
            <mxPoint x="530" y="251" as="sourcePoint" />
            <mxPoint x="560" y="251" as="targetPoint" />
          </mxGeometry>
        </mxCell>
        <mxCell id="zgWZBA6vLyGCEYOvneBH-21" style="edgeStyle=orthogonalEdgeStyle;rounded=0;orthogonalLoop=1;jettySize=auto;html=1;entryX=0;entryY=0.5;entryDx=0;entryDy=0;curved=1;" edge="1" parent="1" source="zgWZBA6vLyGCEYOvneBH-7" target="zgWZBA6vLyGCEYOvneBH-16">
          <mxGeometry relative="1" as="geometry" />
        </mxCell>
        <mxCell id="zgWZBA6vLyGCEYOvneBH-23" value="&lt;font&gt;Docker&lt;/font&gt;" style="text;html=1;align=center;verticalAlign=middle;whiteSpace=wrap;rounded=0;fillColor=#E3D058;fontColor=#000000;" vertex="1" parent="1">
          <mxGeometry x="730" y="500" width="60" height="30" as="geometry" />
        </mxCell>
      </root>
    </mxGraphModel>
  </diagram>
</mxfile>
